<svg width="96" height="96" xmlns="http://www.w3.org/2000/svg" xmlns:xlink="http://www.w3.org/1999/xlink" xml:space="preserve" overflow="hidden"><defs><clipPath id="clip0"><rect x="63" y="597" width="96" height="96"/></clipPath></defs><g clip-path="url(#clip0)" transform="translate(-63 -597)"><path d="M95 659C95 663.418 91.4183 667 87 667 82.5817 667 79 663.418 79 659 79 654.582 82.5817 651 87 651 91.4183 651 95 654.582 95 659Z" fill="#050F2B"/><path d="M143 659C143 663.418 139.418 667 135 667 130.582 667 127 663.418 127 659 127 654.582 130.582 651 135 651 139.418 651 143 654.582 143 659Z" fill="#050F2B"/><path d="M102 639 102 627 115.7 627C116.8 627 117.8 627.4 118.5 628.2L129.3 639 102 639ZM98 639 72.7 639 83.5 628.2C84.3 627.4 85.3 627 86.3 627L98 627 98 639ZM145 639 136.7 639C135.6 639 134.6 638.6 133.9 637.8L121.3 625.3C119.8 623.8 117.8 623 115.6 623L86.3 623C84.2 623 82.1 623.8 80.6 625.3L68.2 637.8C67.4 638.6 67 639.6 67 640.7L67 651C67 655.4 70.6 659 75 659L76 659C76 652.9 80.9 648 87 648 93.1 648 98 652.9 98 659L124 659C124 652.9 128.9 648 135 648 141.1 648 146 652.9 146 659L151 659C153.2 659 155 657.2 155 655L155 649C155 643.5 150.5 639 145 639Z" fill="#050F2B"/></g></svg>